<svg width="160" height="61" viewBox="0 0 160 61" fill="none" xmlns="http://www.w3.org/2000/svg">
<path d="M32.9923 17.4469C36.8062 16.4241 38.0125 15.8205 38.2247 15.6799C38.9446 15.203 37.4141 13.7719 36.7967 12.9062C36.4488 12.4184 35.0547 11.7583 33.2172 10.9981C32.2535 10.5995 31.5113 10.447 30.6646 10.0587C29.8425 9.68164 28.1248 9.42109 26.0927 9.15586C24.59 8.95974 23.3104 9.38183 21.1881 10.2295C20.4474 10.5253 20.0513 10.7971 19.6264 11.0803C19.0621 11.4566 18.3199 12.2102 17.999 12.6537C17.6693 13.1093 17.1169 13.8355 16.832 14.5267C16.2518 15.9345 16.0888 17.658 16.0358 18.7449C15.9879 19.7257 16.0178 21.5823 16.0703 22.9233C16.1901 25.9842 16.5832 26.4975 16.8813 27.7615C17.1229 28.7859 17.6346 30.566 18.2722 32.5887C18.9098 34.6113 19.68 36.8169 20.1293 38.0407C20.818 39.9166 21.1441 40.6786 21.5679 41.6663C21.8599 42.3469 22.5901 43.4317 23.4383 44.5806C24.2819 45.7234 25.7017 47.4281 26.447 48.193C26.9983 48.7588 27.7206 49.0609 28.2495 49.3075C28.8635 49.5939 30.1533 50.1897 32.1112 50.8957C35.1017 51.9741 35.8185 51.8542 37.2476 51.8033C38.3961 51.7624 39.0013 51.3259 40.8525 50.0401C42.4173 48.9533 43.1749 48.1113 43.9509 47.0685C45.1693 45.4312 46.1093 44.7164 46.6934 42.8126C47.2483 41.0036 47.2084 39.0618 47.1734 37.8248C47.156 37.2092 46.6812 36.7236 46.1513 36.1756C45.8762 35.8912 44.8129 35.7316 42.1209 35.4314C40.3391 35.3062 37.7133 35.2362 36.5707 35.2001C35.4281 35.164 35.8482 35.164 36.2811 35.164" stroke="black" stroke-width="2" stroke-linecap="round"/>
<path d="M53.3613 10.127C53.3613 11.7374 53.3963 13.0572 53.5719 14.4125C53.6845 15.2817 53.9576 16.503 54.1888 17.4143C54.4201 18.3257 54.6302 18.8858 55.141 19.6295C55.6518 20.3732 56.4571 21.2835 57.0119 21.9624C57.5668 22.6414 57.8468 23.0615 58.2187 24.0132C58.5905 24.9648 59.0457 26.4352 59.3151 27.4028C59.9138 29.5522 60.0801 30.5993 60.1331 31.8469C60.1727 32.7788 60.1511 34.3199 60.2912 36.0237C60.4312 37.7275 60.7113 39.5481 60.8556 40.906C60.9999 43.1042 61.0699 44.32 61.211 45.5507C61.2821 46.4312 61.3521 47.8316 61.3181 49.2745" stroke="black" stroke-width="2" stroke-linecap="round"/>
<path d="M53.4678 10.445C53.5378 10.375 54.2391 9.91884 55.597 9.21227C56.8893 8.53986 58.1315 8.6065 59.1357 8.58846C60.4576 8.56472 61.5275 8.81762 62.425 9.13377C63.9067 9.6557 65.0285 10.4429 65.6809 10.8312C67.0009 11.6167 68.034 12.5266 68.5666 13.5005C69.0336 14.3545 67.7953 16.1984 66.8071 18.1403C66.0445 19.6389 64.7919 20.9056 63.5899 22.019C63.1514 22.4252 63.0881 22.5373 63.122 22.6264C63.206 22.8467 64.4206 23.0677 66.0984 23.4735C67.2107 23.7426 68.6281 24.4098 70.3946 25.1158C71.1232 25.4071 71.4608 25.6818 72.2713 26.4382C73.0818 27.1947 74.3422 28.455 75.044 29.2268C75.9173 30.1872 75.994 30.7413 76.0121 31.2351C76.0304 31.7363 75.0127 33.1368 73.5996 34.9923C73.0514 35.7121 72.7466 35.9026 70.0816 38.549C67.4166 41.1955 62.3752 46.2719 59.7781 48.7645C57.181 51.2571 57.181 51.0121 57.181 50.7596" stroke="black" stroke-width="2" stroke-linecap="round"/>
<path d="M79.2476 10.5508C79.2476 10.9709 79.2476 11.3974 79.4226 12.5384C79.5663 13.4747 79.9478 15.1148 80.1456 16.1375C80.3435 17.1602 80.3785 17.5103 80.6941 19.0911C81.0097 20.6718 81.6049 23.4726 82.5942 28.1889C83.5835 32.9052 84.9489 39.452 86.37 44.4176C87.7911 49.3832 89.2265 52.5691 90.281 54.7005C91.8502 57.872 92.755 58.9271 93.0723 59.0688C93.4258 59.2266 94.4111 58.2991 96.4528 55.8897C97.8257 54.2696 99.6149 51.6249 100.728 49.5026C101.842 47.3802 102.157 45.8048 102.512 43.4352C102.867 41.0657 103.252 37.9498 103.433 35.1018C103.613 32.2538 103.578 29.7681 103.455 27.8749C103.332 25.9817 103.122 24.7563 102.716 23.0923C102.311 21.4283 101.715 19.3627 101.269 17.826C100.547 15.3425 100.254 14.09 100.236 13.6131C100.184 13.3113 100.147 12.958 100.13 12.5166C100.112 12.3204 100.077 12.1803 99.9353 11.93" stroke="black" stroke-width="2" stroke-linecap="round"/>
<path d="M119.88 11.7178C119.88 12.8731 119.88 14.0284 119.95 15.7439C120.02 17.4594 120.16 19.7 120.39 21.362C120.62 23.0239 120.935 24.0392 122.988 29.4461C125.041 34.853 128.822 44.6208 130.84 50.4054C132.857 56.19 132.997 57.6954 133.105 58.541C133.212 59.3865 133.282 59.5265 133.354 59.4586" stroke="black" stroke-width="2" stroke-linecap="round"/>
<path d="M107.255 2.80683C109.846 5.39757 111.636 7.08229 112.658 7.8053C113.839 8.64073 114.961 9.24017 115.877 9.76957C116.986 10.4107 118.669 10.5854 120.38 10.8151C121.839 11.0109 123.198 10.5907 124.503 9.51707C125.229 8.91985 125.739 7.84826 126.203 6.64307C126.667 5.43788 126.982 4.03748 127.144 3.07099C127.307 2.10451 127.307 1.61437 127.307 1.10938" stroke="black" stroke-width="2" stroke-linecap="round"/>
<path d="M153.071 1C142.448 3.9333 131.824 6.86661 107.563 13.9668C83.3012 21.0671 45.7232 32.2453 26.2459 38.0831C6.7686 43.9209 6.53076 44.0795 5.53618 44.4386C4.54159 44.7978 2.79747 45.3527 1.00049 45.9245" stroke="black" stroke-width="2" stroke-linecap="round"/>
<path d="M2.68213 17.0965C10.1343 16.1451 14.6868 15.6551 16.085 15.8532C17.5174 16.0563 19.1673 17.7283 22.0381 19.5649C23.7294 20.6469 26.1774 21.5601 28.235 22.2496C31.8914 23.4748 35.4169 23.6622 38.9316 23.703C40.7025 23.7236 42.4463 23.506 46.833 21.9577C51.2198 20.4094 58.1963 17.4761 62.1074 16.0839C66.0184 14.6917 66.6527 14.9295 68.2875 15.7656C69.9223 16.6016 72.5385 18.0286 83.1222 21.9745C93.7059 25.9204 112.178 32.342 122.605 35.8482C133.033 39.3545 134.856 39.7509 136.549 39.9947C139.731 40.4532 142.964 40.3203 146.081 40.002C147.545 39.8524 148.723 39.3665 149.652 39.2812C150.582 39.196 151.216 39.4338 152.574 40.6662C153.931 41.8986 155.992 44.1184 158.356 46.886" stroke="black" stroke-width="2" stroke-linecap="round"/>
<path d="M1.24072 53.6128C8.93074 51.7101 16.6208 49.8074 21.5336 48.2723C28.5117 46.0918 30.7852 44.563 31.9816 44.6831C33.6457 44.8502 35.823 44.5654 39.1707 43.8891C41.3465 43.4496 44.4211 42.4993 47.5994 41.8123C53.9088 40.4483 57.6125 40.2387 58.3717 40.4777C59.1229 40.7143 59.6161 41.1997 60.3332 41.2405C60.8133 41.2678 61.526 41.0435 63.6773 39.8123C65.8287 38.5811 69.3962 36.282 73.216 34.1066C77.0358 31.9313 80.9997 29.9493 84.548 28.5319C88.0963 27.1145 91.1089 26.3217 93.1365 25.953C95.1641 25.5842 96.1155 25.6635 97.0416 25.9025C97.9677 26.1416 98.8398 26.5379 106.384 26.2268C113.929 25.9157 128.12 24.8851 135.827 24.2749C143.534 23.6647 144.326 23.5061 144.854 23.3848C145.381 23.2635 145.619 23.1842 146.344 22.8623" stroke="black" stroke-width="2" stroke-linecap="round"/>
</svg>
